<?xml version="1.0" encoding="UTF-8"?>
<svg id="Capa_2" xmlns="http://www.w3.org/2000/svg" width="28.48cm" height="14.37cm" version="1.1" viewBox="0 0 807.31 407.34">
  <!-- Generator: Adobe Illustrator 30.1.0, SVG Export Plug-In . SVG Version: 2.1.1 Build 136)  -->
  <defs>
    <style>
      .st0 {
        fill: #fff;
      }
    </style>
  </defs>
  <path class="st0" d="M37,198.86c6.04,7.02,12.69,12.43,19.97,16.24,7.28,3.81,16.33,6.35,27.17,7.64,10.83,1.28,20.83,1.92,29.99,1.92,15.84,0,29.42-2.09,40.71-6.29,8.13-3,15.9-8.2,23.31-15.6,7.4-7.4,12.84-16.05,16.31-25.93,3.47-9.88,5.2-20.39,5.2-31.51V33.16h-58.05v114.84c0,10.44-2.85,18.5-8.54,24.2-5.7,5.69-13.55,8.53-23.57,8.53s-18.01-2.89-23.7-8.67c-5.69-5.77-8.54-13.8-8.54-24.07V33.16H19.22v112.18c0,9.24,1.8,19.85,5.39,31.83,2.23,7.45,6.36,14.68,12.4,21.7Z"/>
  <rect class="st0" x="240.52" y="33.16" width="58.31" height="188.28"/>
  <polygon class="st0" points="387.57 77.85 424.22 221.45 467.34 221.45 504.06 77.85 504.06 221.45 551.71 221.45 551.71 33.16 475.24 33.16 445.95 147.72 416.43 33.16 339.92 33.16 339.92 221.45 387.57 221.45 387.57 77.85"/>
  <rect class="st0" x="7.71" y="239.43" width="544.22" height="42.73"/>
  <path class="st0" d="M799.23,275.17c-3.76-13.15-7.68-26.27-11.55-39.38.25-.54.42-1.08.42-1.65,0-5.38-11.89-9.61-29.8-12.6,3.6-6.86,7.21-13.72,10.81-20.58,1.67-3.2,3.4-6.6,3.17-10.2-.1-1.52-.55-3.02-.41-4.54.18-1.93,1.28-3.63,2.04-5.41,1.6-3.76,1.63-8.16.09-11.94-.89-2.19-2.27-4.16-3.25-6.31-1.49-3.3-1.99-6.95-2.58-10.52-5.05-30.62-18.27-58.22-36.35-83.21-.75-1.04-2.03-1.99-2.5-2.68-1.22-1.75-1.35-4.93-2.17-6.98-1.17-2.95-2.25-5.94-3.38-8.91-.08-.21-.42-1.1-.73-1.87-.35-.91-.81-1.76-1.38-2.55-1.3-1.82-4.13-5.25-9.49-9.71-3.26-2.7-7.3-4.38-11.63-4.45s-8.79.49-12.88-.88c-5.1-1.72-8.71-6.17-11.14-10.83-.97-1.88-1.91-3.93-3.76-5.03-1.05-.62-2.29-.86-3.53-.89-.41,0-.82,0-1.23.03-6.58.42-12.27,4.4-17.55,8.22-5.62,4.07-11.48,8.41-14.35,14.6-.73,1.57-1.24,3.22-2.05,4.76-1.03,1.97-2.51,3.69-3.77,5.53-3.6,5.27-5.35,11.49-6.92,17.62-3.9,15.21-7.08,30.68-12.94,45.28-3.67,9.14-8.36,17.88-11.73,27.11-3.38,9.24-5.41,19.22-3.51,28.85,1.73,8.72,6.58,16.7,7.81,25.49.92,6.6-.27,13.29-.37,19.94-.05,3.37.24,6.87,1.16,10.12-17.6,2.98-29.25,7.18-29.25,12.51,0,.56.17,1.11.42,1.65-3.83,13-7.67,25.98-11.46,38.97-.26.9-.53,1.84-.35,2.77.46,2.4,3.4,3.24,5.81,3.61,66.1,9.99,132.77,12.7,199.2,3.94,9.03-1.19,18.29-2.22,27.16-4.33,1.71-.41,3.67-1.11,4.15-2.79.25-.91,0-1.87-.27-2.78l.02.02h0ZM649.79,198.93c1.4-2.26,3.37-4.41,6.01-5.06,1.79-.44,3.7-.14,5.48-.58,3.43-.84,5.58-4.17,6.59-7.44,1-3.28,1.23-6.78,2.62-9.92,2.55-5.72,8.7-9.58,10.5-15.57.56-1.86.41-4.29-1.37-5.18-.82-.41-1.8-.38-2.73-.33l-14.95.71c-1.22.06-2.53.1-3.53-.57-1.51-1-1.67-3.07-1.45-4.82,1.15-9.27,8.33-16.71,11.71-25.46,5.98-15.51.28-34.95,11.18-47.73,1.52-1.78,3.79-3.72,6.23-2.54,5.21,2.52,3.37,10.46,3.25,14.97-.28,10.17,3.25,19.93,7.02,29.21,3.85,9.47,6.67,19.6,9.8,29.36.38,1.19.41,2.49-.02,3.67-1.3,3.55-5.04,2.43-7.61,3.82-2.26,1.22-3.06,4.07-3.21,6.64-.15,2.57.11,5.25-.92,7.61-.98,2.26-2.99,3.88-4.84,5.52-3.93,3.52-7.38,7.57-10.21,12.01-1.13,1.78-2.21,4.06-.4,5.86.97.96,2.38,1.35,3.74,1.19,6.77-.84,13.63-1.01,20.43-.53,2.61.19,5.37.53,7.39,2.18,3.44,2.8,3.34,8.07,2.32,12.39-.67,2.85-1.53,5.78-1.68,8.67-9.78-.45-19.84-.69-29.79-.69-12.12,0-24.41.35-36.12,1.02.12-6.49,1.15-12.91,4.58-18.4h0ZM604.41,223.42c.91,2.49,2.23,4.79,4.13,6.72,6.87,6.95,18.36,6.64,28.17,4.94,3.03-.53,6.4-1.38,7.91-3.96,1.05-1.79.92-3.96.79-6.01-.12-1.96-.2-3.96-.21-5.95,11.06-.63,23.13-1.01,36.14-1.01,10.58,0,20.51.25,29.82.68.07.86.16,1.72.45,2.56.87,2.53,2.74,4.56,4.56,6.52,3.55,3.81,7.83,7.92,13.02,7.59,3.19-.2,6.08-2.1,9.27-2.32,4.1-.28,8.49,2.22,12.13.3,1.96-1.04,3.11-3.12,4.15-5.09.9-1.71,1.79-3.41,2.69-5.12,18.34,3.03,28.85,7.02,28.85,10.88,0,7.72-42.15,15.99-104.92,15.99s-104.92-8.27-104.92-15.99c0-3.79,10.21-7.71,27.99-10.72h-.01ZM765.37,245.43c3.74-.77,7.11-1.61,10.04-2.52-2.94.94-6.33,1.78-10.04,2.52Z"/>
  <path class="st0" d="M137.3,315.67h-5.82v15.94c0,2.28-.09,3.91-.25,4.89-.17.98-.68,1.81-1.51,2.49-.84.67-2.08,1.01-3.73,1.01s-2.91-.36-3.84-1.07c-.93-.71-1.53-1.66-1.78-2.84-.14-.73-.22-2.34-.22-4.82v-15.6h-5.82v15.37c0,3.22.19,5.66.57,7.31.27,1.12.81,2.18,1.63,3.19.83,1.02,1.95,1.84,3.37,2.47,1.42.64,3.51.96,6.26.96,2.28,0,4.13-.29,5.54-.87,1.41-.59,2.55-1.37,3.39-2.35.85-.98,1.43-2.19,1.73-3.61.31-1.43.48-3.87.48-7.33v-15.13h0Z"/>
  <polygon class="st0" points="149.15 315.67 143.49 315.67 143.49 344.47 148.89 344.47 148.89 325.69 160.51 344.47 166.34 344.47 166.34 315.67 160.94 315.67 160.94 334.9 149.15 315.67"/>
  <rect class="st0" x="172.32" y="315.67" width="5.82" height="28.81"/>
  <path class="st0" d="M199.76,316.22c-1.26-.36-3.09-.55-5.48-.55h-10.63v28.81h10.94c2.15,0,3.87-.2,5.15-.61,1.72-.55,3.08-1.32,4.09-2.3,1.34-1.29,2.36-2.99,3.09-5.09.59-1.72.88-3.76.88-6.13,0-2.7-.31-4.97-.94-6.81s-1.55-3.4-2.75-4.67-2.65-2.15-4.34-2.65h0ZM201.2,335.37c-.4,1.29-.91,2.21-1.52,2.78-.62.56-1.41.97-2.35,1.2-.72.19-1.89.28-3.52.28h-4.34v-19.08h2.61c2.37,0,3.96.09,4.77.28,1.09.23,1.99.68,2.7,1.35s1.25,1.6,1.65,2.79c.39,1.19.59,2.91.59,5.13s-.19,3.98-.59,5.27h0Z"/>
  <path class="st0" d="M227.17,315.67h-6.15l-11.22,28.81h6.17l2.38-6.55h11.51l2.52,6.55h6.32l-11.53-28.81h0ZM220.14,333.08l3.89-10.69,3.97,10.69h-7.86Z"/>
  <path class="st0" d="M265.03,336.48c.59-1.72.88-3.76.88-6.13,0-2.7-.31-4.97-.94-6.81s-1.55-3.4-2.75-4.67-2.65-2.15-4.34-2.65c-1.26-.36-3.09-.55-5.48-.55h-10.63v28.81h10.94c2.15,0,3.87-.2,5.15-.61,1.72-.55,3.08-1.32,4.09-2.3,1.34-1.29,2.36-2.99,3.09-5.09h-.01ZM259.31,335.37c-.4,1.29-.91,2.21-1.52,2.78-.62.56-1.41.97-2.35,1.2-.72.19-1.89.28-3.52.28h-4.34v-19.08h2.61c2.37,0,3.96.09,4.77.28,1.09.23,1.99.68,2.7,1.35s1.25,1.6,1.65,2.79c.39,1.19.59,2.91.59,5.13s-.19,3.98-.59,5.27h0Z"/>
  <path class="st0" d="M305.27,336.48c.59-1.72.88-3.76.88-6.13,0-2.7-.31-4.97-.94-6.81s-1.55-3.4-2.75-4.67-2.65-2.15-4.34-2.65c-1.26-.36-3.09-.55-5.48-.55h-10.63v28.81h10.94c2.15,0,3.87-.2,5.15-.61,1.72-.55,3.08-1.32,4.09-2.3,1.34-1.29,2.36-2.99,3.09-5.09h0ZM299.55,335.37c-.4,1.29-.91,2.21-1.52,2.78-.62.56-1.41.97-2.35,1.2-.72.19-1.89.28-3.52.28h-4.34v-19.08h2.61c2.37,0,3.96.09,4.77.28,1.09.23,1.99.68,2.7,1.35s1.25,1.6,1.65,2.79c.39,1.19.59,2.91.59,5.13s-.19,3.98-.59,5.27h0Z"/>
  <polygon class="st0" points="332.43 320.54 332.43 315.67 311.08 315.67 311.08 344.47 332.99 344.47 332.99 339.62 316.9 339.62 316.9 331.78 331.36 331.78 331.36 326.93 316.9 326.93 316.9 320.54 332.43 320.54"/>
  <rect class="st0" x="348.92" y="315.67" width="5.82" height="28.81"/>
  <polygon class="st0" points="365.74 325.69 377.36 344.47 383.19 344.47 383.19 315.67 377.79 315.67 377.79 334.9 365.99 315.67 360.34 315.67 360.34 344.47 365.74 344.47 365.74 325.69"/>
  <polygon class="st0" points="392.7 315.67 386.39 315.67 396.68 344.47 402.89 344.47 413.21 315.67 407.04 315.67 399.98 336.99 392.7 315.67"/>
  <polygon class="st0" points="437.53 320.54 437.53 315.67 416.18 315.67 416.18 344.47 438.09 344.47 438.09 339.62 421.99 339.62 421.99 331.78 436.46 331.78 436.46 326.93 421.99 326.93 421.99 320.54 437.53 320.54"/>
  <path class="st0" d="M463.59,340.72c.92-1.44,1.38-2.98,1.38-4.63,0-1.82-.38-3.35-1.15-4.59s-1.83-2.21-3.18-2.93c-1.36-.71-3.45-1.4-6.28-2.07s-4.61-1.31-5.35-1.93c-.57-.49-.86-1.07-.86-1.75,0-.75.3-1.34.92-1.78.96-.7,2.28-1.04,3.97-1.04s2.87.33,3.69.97c.82.65,1.35,1.71,1.6,3.19l5.82-.25c-.09-2.65-1.05-4.76-2.88-6.35-1.82-1.59-4.55-2.38-8.16-2.38-2.21,0-4.1.33-5.67,1s-2.77,1.64-3.6,2.92c-.83,1.28-1.25,2.65-1.25,4.12,0,2.28.88,4.21,2.65,5.79,1.26,1.13,3.45,2.08,6.56,2.85,2.42.6,3.98,1.02,4.66,1.26.99.35,1.69.77,2.09,1.25s.6,1.05.6,1.73c0,1.07-.48,1.99-1.43,2.78-.95.79-2.36,1.19-4.24,1.19-1.77,0-3.17-.45-4.21-1.34-1.04-.89-1.73-2.29-2.07-4.19l-5.66.55c.38,3.22,1.55,5.68,3.5,7.36s4.74,2.52,8.39,2.52c2.5,0,4.59-.35,6.27-1.05,1.67-.7,2.97-1.77,3.89-3.21h0Z"/>
  <polygon class="st0" points="467.79 320.54 476.33 320.54 476.33 344.47 482.15 344.47 482.15 320.54 490.68 320.54 490.68 315.67 467.79 315.67 467.79 320.54"/>
  <rect class="st0" x="494.26" y="315.67" width="5.82" height="28.81"/>
  <path class="st0" d="M531.55,329.03h-12.54v4.85h6.66v3.66c-.87.68-1.93,1.26-3.15,1.74-1.22.48-2.44.72-3.66.72-2.46,0-4.45-.86-5.98-2.56-1.52-1.71-2.28-4.28-2.28-7.69,0-3.17.75-5.56,2.25-7.17,1.5-1.61,3.52-2.41,6.06-2.41,1.67,0,3.07.41,4.19,1.23s1.88,1.93,2.29,3.35l5.78-1.08c-.58-2.65-1.87-4.72-3.88-6.22s-4.81-2.25-8.38-2.25c-2.75,0-5.05.48-6.9,1.43-2.42,1.25-4.26,3.03-5.52,5.36-1.26,2.34-1.88,5-1.88,8,0,2.77.56,5.32,1.69,7.68,1.13,2.35,2.81,4.16,5.05,5.42,2.24,1.26,4.87,1.89,7.88,1.89,2.37,0,4.71-.45,7.02-1.35,2.31-.89,4.08-1.93,5.3-3.12v-11.47h0Z"/>
  <path class="st0" d="M562.88,344.47l-11.53-28.81h-6.15l-11.22,28.81h6.17l2.38-6.55h11.51l2.52,6.55h6.32ZM544.31,333.08l3.89-10.69,3.97,10.69h-7.86Z"/>
  <path class="st0" d="M582,338.52c-1.11.98-2.44,1.47-3.99,1.47-2.1,0-3.8-.77-5.11-2.32s-1.97-4.14-1.97-7.78c0-3.43.67-5.92,1.99-7.45,1.33-1.54,3.07-2.3,5.2-2.3,1.55,0,2.86.43,3.94,1.29,1.08.87,1.79,2.04,2.13,3.54l5.76-1.38c-.66-2.31-1.64-4.08-2.95-5.31-2.2-2.08-5.06-3.12-8.58-3.12-4.04,0-7.29,1.33-9.77,3.98-2.47,2.65-3.71,6.37-3.71,11.17,0,4.53,1.23,8.11,3.7,10.72s5.61,3.92,9.43,3.92c3.09,0,5.64-.76,7.65-2.29,2.01-1.52,3.45-3.86,4.31-7l-5.64-1.79c-.49,2.11-1.28,3.66-2.4,4.64h.01Z"/>
  <rect class="st0" x="594.85" y="315.67" width="5.82" height="28.81"/>
  <polygon class="st0" points="618.13 308.14 615.42 314.02 618.91 314.02 624.32 308.14 618.13 308.14"/>
  <path class="st0" d="M609.02,318.91c-1.14,1.17-2.03,2.49-2.68,3.95-.88,1.99-1.31,4.45-1.31,7.38,0,4.58,1.26,8.19,3.79,10.8s5.94,3.92,10.22,3.92,7.61-1.31,10.14-3.94,3.79-6.27,3.79-10.92-1.28-8.35-3.82-10.98c-2.55-2.63-5.95-3.95-10.19-3.95-2.35,0-4.41.38-6.21,1.14-1.35.56-2.59,1.43-3.72,2.59h0ZM619.01,320.15c2.4,0,4.32.81,5.77,2.44s2.17,4.09,2.17,7.38-.75,5.85-2.23,7.52c-1.49,1.67-3.39,2.51-5.71,2.51s-4.23-.85-5.74-2.52c-1.51-1.68-2.26-4.16-2.26-7.42s.73-5.79,2.2-7.44c1.47-1.65,3.4-2.46,5.8-2.46h0Z"/>
  <polygon class="st0" points="654.58 344.47 660.42 344.47 660.42 315.67 655.02 315.67 655.02 334.9 643.22 315.67 637.57 315.67 637.57 344.47 642.97 344.47 642.97 325.69 654.58 344.47"/>
  <polygon class="st0" points="88.39 383.6 83.16 363.95 74.46 363.95 74.46 392.76 79.86 392.76 79.86 370.08 85.56 392.76 91.16 392.76 96.88 370.08 96.88 392.76 102.28 392.76 102.28 363.95 93.56 363.95 88.39 383.6"/>
  <path class="st0" d="M125.16,379.89c0,2.28-.09,3.91-.25,4.89-.17.98-.68,1.81-1.51,2.49-.84.67-2.08,1.01-3.73,1.01s-2.91-.36-3.84-1.07c-.93-.71-1.53-1.66-1.78-2.84-.14-.73-.22-2.34-.22-4.82v-15.6h-5.82v15.37c0,3.22.19,5.66.57,7.31.27,1.12.81,2.18,1.63,3.19.83,1.02,1.95,1.84,3.37,2.47,1.42.64,3.51.96,6.26.96,2.28,0,4.13-.29,5.54-.87,1.41-.59,2.55-1.37,3.39-2.35.85-.98,1.43-2.19,1.73-3.61.31-1.43.48-3.87.48-7.33v-15.13h-5.82v15.94h0Z"/>
  <polygon class="st0" points="143.09 364.18 137.27 364.18 137.27 392.76 157.55 392.76 157.55 387.9 143.09 387.9 143.09 364.18"/>
  <polygon class="st0" points="156.66 368.82 165.2 368.82 165.2 392.76 171.02 392.76 171.02 368.82 179.54 368.82 179.54 363.95 156.66 363.95 156.66 368.82"/>
  <rect class="st0" x="183.11" y="363.95" width="5.82" height="28.81"/>
  <path class="st0" d="M214.9,367.15c-1.2-1.27-2.65-2.15-4.34-2.65-1.26-.36-3.09-.55-5.48-.55h-10.63v28.81h10.94c2.15,0,3.87-.2,5.15-.61,1.72-.55,3.08-1.32,4.09-2.3,1.34-1.29,2.36-2.99,3.09-5.09.59-1.72.88-3.76.88-6.13,0-2.7-.31-4.97-.94-6.81s-1.55-3.4-2.75-4.67h0ZM212,383.65c-.4,1.29-.91,2.21-1.52,2.78-.62.56-1.41.97-2.35,1.2-.72.19-1.89.28-3.52.28h-4.34v-19.08h2.61c2.37,0,3.96.09,4.77.28,1.09.23,1.99.68,2.7,1.35s1.25,1.6,1.65,2.79c.39,1.19.59,2.91.59,5.13s-.19,3.98-.59,5.27h0Z"/>
  <rect class="st0" x="223.36" y="363.95" width="5.82" height="28.81"/>
  <path class="st0" d="M252.32,376.85c-1.36-.71-3.45-1.4-6.28-2.07s-4.61-1.31-5.35-1.93c-.57-.49-.86-1.07-.86-1.75,0-.75.3-1.34.92-1.78.96-.7,2.28-1.04,3.97-1.04s2.87.33,3.69.97c.82.65,1.35,1.71,1.6,3.19l5.82-.25c-.09-2.65-1.05-4.76-2.88-6.35-1.82-1.59-4.55-2.38-8.16-2.38-2.21,0-4.1.33-5.67,1-1.57.67-2.77,1.64-3.6,2.92s-1.25,2.65-1.25,4.12c0,2.28.88,4.21,2.65,5.79,1.26,1.13,3.45,2.08,6.56,2.85,2.42.6,3.98,1.02,4.66,1.26.99.35,1.69.77,2.09,1.25s.6,1.05.6,1.73c0,1.07-.48,1.99-1.43,2.78s-2.36,1.19-4.24,1.19c-1.77,0-3.17-.45-4.21-1.34-1.04-.89-1.73-2.29-2.07-4.19l-5.66.55c.38,3.22,1.55,5.68,3.5,7.36s4.74,2.52,8.39,2.52c2.5,0,4.59-.35,6.27-1.05,1.67-.7,2.97-1.77,3.89-3.21s1.38-2.98,1.38-4.63c0-1.82-.38-3.35-1.15-4.59s-1.83-2.21-3.18-2.93h0Z"/>
  <path class="st0" d="M277.58,386.8c-1.11.98-2.44,1.47-3.99,1.47-2.1,0-3.8-.77-5.11-2.32s-1.97-4.14-1.97-7.78c0-3.43.67-5.92,1.99-7.45,1.33-1.54,3.07-2.3,5.2-2.3,1.55,0,2.86.43,3.94,1.29,1.08.87,1.79,2.04,2.13,3.54l5.76-1.38c-.66-2.31-1.64-4.08-2.95-5.31-2.2-2.08-5.06-3.12-8.58-3.12-4.04,0-7.29,1.33-9.77,3.98-2.47,2.65-3.71,6.37-3.71,11.17,0,4.53,1.23,8.11,3.7,10.72s5.61,3.92,9.43,3.92c3.09,0,5.64-.76,7.65-2.29,2.01-1.52,3.45-3.86,4.31-7l-5.64-1.79c-.49,2.11-1.28,3.66-2.4,4.64h0Z"/>
  <rect class="st0" x="290.43" y="363.95" width="5.82" height="28.81"/>
  <path class="st0" d="M318.04,364.38c-1.07-.29-3.38-.44-6.92-.44h-9.33v28.81h5.82v-10.86h3.79c2.63,0,4.65-.14,6.03-.41,1.02-.22,2.03-.68,3.02-1.36.99-.69,1.81-1.63,2.45-2.84s.96-2.7.96-4.46c0-2.29-.56-4.16-1.67-5.61-1.12-1.45-2.5-2.39-4.15-2.82h0ZM317.2,375.13c-.44.64-1.04,1.11-1.82,1.41s-2.3.45-4.6.45h-3.18v-8.17h2.81c2.09,0,3.49.07,4.19.19.94.17,1.72.6,2.34,1.28.61.68.92,1.54.92,2.59,0,.85-.22,1.6-.66,2.24h0Z"/>
  <polygon class="st0" points="334.6 364.18 328.78 364.18 328.78 392.76 349.06 392.76 349.06 387.9 334.6 387.9 334.6 364.18"/>
  <rect class="st0" x="353.03" y="363.95" width="5.82" height="28.81"/>
  <polygon class="st0" points="381.9 383.18 370.1 363.95 364.45 363.95 364.45 392.76 369.85 392.76 369.85 373.97 381.47 392.76 387.3 392.76 387.3 363.95 381.9 363.95 381.9 383.18"/>
  <path class="st0" d="M401.73,363.95l-11.22,28.81h6.17l2.38-6.55h11.51l2.52,6.55h6.32l-11.53-28.81h-6.15ZM400.85,381.36l3.89-10.69,3.97,10.69h-7.86Z"/>
  <path class="st0" d="M441.59,382.46c-.82-.88-1.86-1.68-3.12-2.42,2.53-.36,4.43-1.25,5.7-2.66s1.91-3.19,1.91-5.35c0-1.71-.42-3.22-1.25-4.54-.84-1.33-1.96-2.24-3.35-2.76s-3.63-.78-6.71-.78h-12.24v28.81h5.82v-12.02h1.18c1.34,0,2.31.1,2.93.32s1.2.62,1.75,1.2c.55.59,1.57,2,3.07,4.24l4.2,6.27h6.96l-3.52-5.62c-1.39-2.24-2.49-3.8-3.31-4.68h-.02ZM432.64,376.13h-4.3v-7.31h4.54c2.35,0,3.77.03,4.24.1.94.15,1.67.53,2.19,1.13.51.6.77,1.38.77,2.35,0,.87-.19,1.59-.59,2.17-.39.57-.93.98-1.63,1.22s-2.44.35-5.23.35h.01Z"/>
  <rect class="st0" x="451.39" y="363.95" width="5.82" height="28.81"/>
  <path class="st0" d="M471.02,363.95l-11.22,28.81h6.17l2.38-6.55h11.51l2.52,6.55h6.32l-11.53-28.81h-6.15ZM470.14,381.36l3.89-10.69,3.97,10.69h-7.86Z"/>
  <path class="st0" d="M508.37,363.95l-11.22,28.81h6.17l2.38-6.55h11.51l2.52,6.55h6.32l-11.53-28.81h-6.15ZM507.49,381.36l3.89-10.69,3.97,10.69h-7.86Z"/>
  <path class="st0" d="M545.39,364.38c-1.07-.29-3.38-.44-6.92-.44h-9.33v28.81h5.82v-10.86h3.79c2.63,0,4.65-.14,6.03-.41,1.02-.22,2.03-.68,3.02-1.36.99-.69,1.81-1.63,2.45-2.84s.96-2.7.96-4.46c0-2.29-.56-4.16-1.67-5.61-1.12-1.45-2.5-2.39-4.15-2.82h0ZM544.55,375.13c-.44.64-1.04,1.11-1.82,1.41s-2.3.45-4.6.45h-3.18v-8.17h2.81c2.09,0,3.49.07,4.19.19.94.17,1.72.6,2.34,1.28.61.68.92,1.54.92,2.59,0,.85-.22,1.6-.66,2.24h0Z"/>
  <polygon class="st0" points="561.95 364.18 556.13 364.18 556.13 392.76 576.41 392.76 576.41 387.9 561.95 387.9 561.95 364.18"/>
  <rect class="st0" x="580.38" y="363.95" width="5.82" height="28.81"/>
  <path class="st0" d="M607.76,386.8c-1.11.98-2.44,1.47-3.99,1.47-2.1,0-3.8-.77-5.11-2.32s-1.97-4.14-1.97-7.78c0-3.43.67-5.92,1.99-7.45,1.33-1.54,3.07-2.3,5.2-2.3,1.55,0,2.86.43,3.94,1.29,1.08.87,1.79,2.04,2.13,3.54l5.76-1.38c-.66-2.31-1.64-4.08-2.95-5.31-2.2-2.08-5.06-3.12-8.58-3.12-4.04,0-7.29,1.33-9.77,3.98-2.47,2.65-3.71,6.37-3.71,11.17,0,4.53,1.23,8.11,3.7,10.72s5.61,3.92,9.43,3.92c3.09,0,5.64-.76,7.65-2.29,2.01-1.52,3.45-3.86,4.31-7l-5.64-1.79c-.49,2.11-1.28,3.66-2.4,4.64h.01Z"/>
  <path class="st0" d="M629.08,363.95l-11.22,28.81h6.17l2.38-6.55h11.51l2.52,6.55h6.32l-11.53-28.81h-6.15ZM628.2,381.36l3.89-10.69,3.97,10.69h-7.86Z"/>
  <path class="st0" d="M670.29,367.15c-1.2-1.27-2.65-2.15-4.34-2.65-1.26-.36-3.09-.55-5.48-.55h-10.63v28.81h10.94c2.15,0,3.87-.2,5.15-.61,1.72-.55,3.08-1.32,4.09-2.3,1.34-1.29,2.36-2.99,3.09-5.09.59-1.72.88-3.76.88-6.13,0-2.7-.31-4.97-.94-6.81s-1.55-3.4-2.75-4.67h-.01ZM667.39,383.65c-.4,1.29-.91,2.21-1.52,2.78-.62.56-1.41.97-2.35,1.2-.72.19-1.89.28-3.52.28h-4.34v-19.08h2.61c2.37,0,3.96.09,4.77.28,1.09.23,1.99.68,2.7,1.35s1.25,1.6,1.65,2.79c.39,1.19.59,2.91.59,5.13s-.19,3.98-.59,5.27h0Z"/>
  <path class="st0" d="M687.2,363.95l-11.22,28.81h6.17l2.38-6.55h11.51l2.52,6.55h6.32l-11.53-28.81h-6.15ZM686.32,381.36l3.89-10.69,3.97,10.69h-7.86Z"/>
  <metadata>
    <sfw xmlns="http://ns.adobe.com/SaveForWeb/1.0/">
      <slices/>
      <sliceSourceBounds x="7.71" y="14.09" width="791.87" height="379.18" bottomLeftOrigin="true"/>
    </sfw>
  </metadata>
</svg>